<svg height="1051pt" viewBox="0.00 0.00 464.00 1051.00" width="464pt" xmlns="http://www.w3.org/2000/svg" xmlns:xlink="http://www.w3.org/1999/xlink">
<g class="graph" id="graph0" transform="scale(1 1) rotate(0) translate(4 1047)">
<title>G</title>
<polygon fill="#ffffff" points="-4,4 -4,-1047 460,-1047 460,4 -4,4" stroke="transparent"/>
<!-- 140065779860872 -->
<g class="node" id="node1">
<title>140065779860872</title>
<polygon fill="none" points="81,-996.5 81,-1042.5 375,-1042.5 375,-996.5 81,-996.5" stroke="#000000"/>
<text fill="#000000" font-family="Times,serif" font-size="14.00" text-anchor="middle" x="140.5" y="-1015.8">Input: InputLayer</text>
<polyline fill="none" points="200,-996.5 200,-1042.5 " stroke="#000000"/>
<text fill="#000000" font-family="Times,serif" font-size="14.00" text-anchor="middle" x="229" y="-1027.3">input:</text>
<polyline fill="none" points="200,-1019.5 258,-1019.5 " stroke="#000000"/>
<text fill="#000000" font-family="Times,serif" font-size="14.00" text-anchor="middle" x="229" y="-1004.3">output:</text>
<polyline fill="none" points="258,-996.5 258,-1042.5 " stroke="#000000"/>
<text fill="#000000" font-family="Times,serif" font-size="14.00" text-anchor="middle" x="316.5" y="-1027.3">(None, 28, 28, 1)</text>
<polyline fill="none" points="258,-1019.5 375,-1019.5 " stroke="#000000"/>
<text fill="#000000" font-family="Times,serif" font-size="14.00" text-anchor="middle" x="316.5" y="-1004.3">(None, 28, 28, 1)</text>
</g>
<!-- 140065779862496 -->
<g class="node" id="node2">
<title>140065779862496</title>
<polygon fill="none" points="68,-913.5 68,-959.5 388,-959.5 388,-913.5 68,-913.5" stroke="#000000"/>
<text fill="#000000" font-family="Times,serif" font-size="14.00" text-anchor="middle" x="136.5" y="-932.8">Conv2D-1: Conv2D</text>
<polyline fill="none" points="205,-913.5 205,-959.5 " stroke="#000000"/>
<text fill="#000000" font-family="Times,serif" font-size="14.00" text-anchor="middle" x="234" y="-944.3">input:</text>
<polyline fill="none" points="205,-936.5 263,-936.5 " stroke="#000000"/>
<text fill="#000000" font-family="Times,serif" font-size="14.00" text-anchor="middle" x="234" y="-921.3">output:</text>
<polyline fill="none" points="263,-913.5 263,-959.5 " stroke="#000000"/>
<text fill="#000000" font-family="Times,serif" font-size="14.00" text-anchor="middle" x="325.5" y="-944.3">(None, 28, 28, 1)</text>
<polyline fill="none" points="263,-936.5 388,-936.5 " stroke="#000000"/>
<text fill="#000000" font-family="Times,serif" font-size="14.00" text-anchor="middle" x="325.5" y="-921.3">(None, 28, 28, 16)</text>
</g>
<!-- 140065779860872&#45;&gt;140065779862496 -->
<g class="edge" id="edge1">
<title>140065779860872-&gt;140065779862496</title>
<path d="M228,-996.3799C228,-988.1745 228,-978.7679 228,-969.8786" fill="none" stroke="#000000"/>
<polygon fill="#000000" points="231.5001,-969.784 228,-959.784 224.5001,-969.784 231.5001,-969.784" stroke="#000000"/>
</g>
<!-- 140065636314920 -->
<g class="node" id="node3">
<title>140065636314920</title>
<polygon fill="none" points="0,-830.5 0,-876.5 456,-876.5 456,-830.5 0,-830.5" stroke="#000000"/>
<text fill="#000000" font-family="Times,serif" font-size="14.00" text-anchor="middle" x="136.5" y="-849.8">Batch_Normalization-1: BatchNormalization</text>
<polyline fill="none" points="273,-830.5 273,-876.5 " stroke="#000000"/>
<text fill="#000000" font-family="Times,serif" font-size="14.00" text-anchor="middle" x="302" y="-861.3">input:</text>
<polyline fill="none" points="273,-853.5 331,-853.5 " stroke="#000000"/>
<text fill="#000000" font-family="Times,serif" font-size="14.00" text-anchor="middle" x="302" y="-838.3">output:</text>
<polyline fill="none" points="331,-830.5 331,-876.5 " stroke="#000000"/>
<text fill="#000000" font-family="Times,serif" font-size="14.00" text-anchor="middle" x="393.5" y="-861.3">(None, 28, 28, 16)</text>
<polyline fill="none" points="331,-853.5 456,-853.5 " stroke="#000000"/>
<text fill="#000000" font-family="Times,serif" font-size="14.00" text-anchor="middle" x="393.5" y="-838.3">(None, 28, 28, 16)</text>
</g>
<!-- 140065779862496&#45;&gt;140065636314920 -->
<g class="edge" id="edge2">
<title>140065779862496-&gt;140065636314920</title>
<path d="M228,-913.3799C228,-905.1745 228,-895.7679 228,-886.8786" fill="none" stroke="#000000"/>
<polygon fill="#000000" points="231.5001,-886.784 228,-876.784 224.5001,-886.784 231.5001,-886.784" stroke="#000000"/>
</g>
<!-- 140065636312064 -->
<g class="node" id="node4">
<title>140065636312064</title>
<polygon fill="none" points="38,-747.5 38,-793.5 418,-793.5 418,-747.5 38,-747.5" stroke="#000000"/>
<text fill="#000000" font-family="Times,serif" font-size="14.00" text-anchor="middle" x="136.5" y="-766.8">MaxPool2D-1: MaxPooling2D</text>
<polyline fill="none" points="235,-747.5 235,-793.5 " stroke="#000000"/>
<text fill="#000000" font-family="Times,serif" font-size="14.00" text-anchor="middle" x="264" y="-778.3">input:</text>
<polyline fill="none" points="235,-770.5 293,-770.5 " stroke="#000000"/>
<text fill="#000000" font-family="Times,serif" font-size="14.00" text-anchor="middle" x="264" y="-755.3">output:</text>
<polyline fill="none" points="293,-747.5 293,-793.5 " stroke="#000000"/>
<text fill="#000000" font-family="Times,serif" font-size="14.00" text-anchor="middle" x="355.5" y="-778.3">(None, 28, 28, 16)</text>
<polyline fill="none" points="293,-770.5 418,-770.5 " stroke="#000000"/>
<text fill="#000000" font-family="Times,serif" font-size="14.00" text-anchor="middle" x="355.5" y="-755.3">(None, 14, 14, 16)</text>
</g>
<!-- 140065636314920&#45;&gt;140065636312064 -->
<g class="edge" id="edge3">
<title>140065636314920-&gt;140065636312064</title>
<path d="M228,-830.3799C228,-822.1745 228,-812.7679 228,-803.8786" fill="none" stroke="#000000"/>
<polygon fill="#000000" points="231.5001,-803.784 228,-793.784 224.5001,-803.784 231.5001,-803.784" stroke="#000000"/>
</g>
<!-- 140065636353920 -->
<g class="node" id="node5">
<title>140065636353920</title>
<polygon fill="none" points="69.5,-664.5 69.5,-710.5 386.5,-710.5 386.5,-664.5 69.5,-664.5" stroke="#000000"/>
<text fill="#000000" font-family="Times,serif" font-size="14.00" text-anchor="middle" x="136.5" y="-683.8">Dropout-1: Dropout</text>
<polyline fill="none" points="203.5,-664.5 203.5,-710.5 " stroke="#000000"/>
<text fill="#000000" font-family="Times,serif" font-size="14.00" text-anchor="middle" x="232.5" y="-695.3">input:</text>
<polyline fill="none" points="203.5,-687.5 261.5,-687.5 " stroke="#000000"/>
<text fill="#000000" font-family="Times,serif" font-size="14.00" text-anchor="middle" x="232.5" y="-672.3">output:</text>
<polyline fill="none" points="261.5,-664.5 261.5,-710.5 " stroke="#000000"/>
<text fill="#000000" font-family="Times,serif" font-size="14.00" text-anchor="middle" x="324" y="-695.3">(None, 14, 14, 16)</text>
<polyline fill="none" points="261.5,-687.5 386.5,-687.5 " stroke="#000000"/>
<text fill="#000000" font-family="Times,serif" font-size="14.00" text-anchor="middle" x="324" y="-672.3">(None, 14, 14, 16)</text>
</g>
<!-- 140065636312064&#45;&gt;140065636353920 -->
<g class="edge" id="edge4">
<title>140065636312064-&gt;140065636353920</title>
<path d="M228,-747.3799C228,-739.1745 228,-729.7679 228,-720.8786" fill="none" stroke="#000000"/>
<polygon fill="#000000" points="231.5001,-720.784 228,-710.784 224.5001,-720.784 231.5001,-720.784" stroke="#000000"/>
</g>
<!-- 140065636353528 -->
<g class="node" id="node6">
<title>140065636353528</title>
<polygon fill="none" points="68,-581.5 68,-627.5 388,-627.5 388,-581.5 68,-581.5" stroke="#000000"/>
<text fill="#000000" font-family="Times,serif" font-size="14.00" text-anchor="middle" x="136.5" y="-600.8">Conv2D-2: Conv2D</text>
<polyline fill="none" points="205,-581.5 205,-627.5 " stroke="#000000"/>
<text fill="#000000" font-family="Times,serif" font-size="14.00" text-anchor="middle" x="234" y="-612.3">input:</text>
<polyline fill="none" points="205,-604.5 263,-604.5 " stroke="#000000"/>
<text fill="#000000" font-family="Times,serif" font-size="14.00" text-anchor="middle" x="234" y="-589.3">output:</text>
<polyline fill="none" points="263,-581.5 263,-627.5 " stroke="#000000"/>
<text fill="#000000" font-family="Times,serif" font-size="14.00" text-anchor="middle" x="325.5" y="-612.3">(None, 14, 14, 16)</text>
<polyline fill="none" points="263,-604.5 388,-604.5 " stroke="#000000"/>
<text fill="#000000" font-family="Times,serif" font-size="14.00" text-anchor="middle" x="325.5" y="-589.3">(None, 14, 14, 32)</text>
</g>
<!-- 140065636353920&#45;&gt;140065636353528 -->
<g class="edge" id="edge5">
<title>140065636353920-&gt;140065636353528</title>
<path d="M228,-664.3799C228,-656.1745 228,-646.7679 228,-637.8786" fill="none" stroke="#000000"/>
<polygon fill="#000000" points="231.5001,-637.784 228,-627.784 224.5001,-637.784 231.5001,-637.784" stroke="#000000"/>
</g>
<!-- 140065639982416 -->
<g class="node" id="node7">
<title>140065639982416</title>
<polygon fill="none" points="0,-498.5 0,-544.5 456,-544.5 456,-498.5 0,-498.5" stroke="#000000"/>
<text fill="#000000" font-family="Times,serif" font-size="14.00" text-anchor="middle" x="136.5" y="-517.8">Batch_Normalization-2: BatchNormalization</text>
<polyline fill="none" points="273,-498.5 273,-544.5 " stroke="#000000"/>
<text fill="#000000" font-family="Times,serif" font-size="14.00" text-anchor="middle" x="302" y="-529.3">input:</text>
<polyline fill="none" points="273,-521.5 331,-521.5 " stroke="#000000"/>
<text fill="#000000" font-family="Times,serif" font-size="14.00" text-anchor="middle" x="302" y="-506.3">output:</text>
<polyline fill="none" points="331,-498.5 331,-544.5 " stroke="#000000"/>
<text fill="#000000" font-family="Times,serif" font-size="14.00" text-anchor="middle" x="393.5" y="-529.3">(None, 14, 14, 32)</text>
<polyline fill="none" points="331,-521.5 456,-521.5 " stroke="#000000"/>
<text fill="#000000" font-family="Times,serif" font-size="14.00" text-anchor="middle" x="393.5" y="-506.3">(None, 14, 14, 32)</text>
</g>
<!-- 140065636353528&#45;&gt;140065639982416 -->
<g class="edge" id="edge6">
<title>140065636353528-&gt;140065639982416</title>
<path d="M228,-581.3799C228,-573.1745 228,-563.7679 228,-554.8786" fill="none" stroke="#000000"/>
<polygon fill="#000000" points="231.5001,-554.784 228,-544.784 224.5001,-554.784 231.5001,-554.784" stroke="#000000"/>
</g>
<!-- 140065638578272 -->
<g class="node" id="node8">
<title>140065638578272</title>
<polygon fill="none" points="38,-415.5 38,-461.5 418,-461.5 418,-415.5 38,-415.5" stroke="#000000"/>
<text fill="#000000" font-family="Times,serif" font-size="14.00" text-anchor="middle" x="136.5" y="-434.8">MaxPool2D-2: MaxPooling2D</text>
<polyline fill="none" points="235,-415.5 235,-461.5 " stroke="#000000"/>
<text fill="#000000" font-family="Times,serif" font-size="14.00" text-anchor="middle" x="264" y="-446.3">input:</text>
<polyline fill="none" points="235,-438.5 293,-438.5 " stroke="#000000"/>
<text fill="#000000" font-family="Times,serif" font-size="14.00" text-anchor="middle" x="264" y="-423.3">output:</text>
<polyline fill="none" points="293,-415.5 293,-461.5 " stroke="#000000"/>
<text fill="#000000" font-family="Times,serif" font-size="14.00" text-anchor="middle" x="355.5" y="-446.3">(None, 14, 14, 32)</text>
<polyline fill="none" points="293,-438.5 418,-438.5 " stroke="#000000"/>
<text fill="#000000" font-family="Times,serif" font-size="14.00" text-anchor="middle" x="355.5" y="-423.3">(None, 7, 7, 32)</text>
</g>
<!-- 140065639982416&#45;&gt;140065638578272 -->
<g class="edge" id="edge7">
<title>140065639982416-&gt;140065638578272</title>
<path d="M228,-498.3799C228,-490.1745 228,-480.7679 228,-471.8786" fill="none" stroke="#000000"/>
<polygon fill="#000000" points="231.5001,-471.784 228,-461.784 224.5001,-471.784 231.5001,-471.784" stroke="#000000"/>
</g>
<!-- 140065669793048 -->
<g class="node" id="node9">
<title>140065669793048</title>
<polygon fill="none" points="77,-332.5 77,-378.5 379,-378.5 379,-332.5 77,-332.5" stroke="#000000"/>
<text fill="#000000" font-family="Times,serif" font-size="14.00" text-anchor="middle" x="144" y="-351.8">Dropout-2: Dropout</text>
<polyline fill="none" points="211,-332.5 211,-378.5 " stroke="#000000"/>
<text fill="#000000" font-family="Times,serif" font-size="14.00" text-anchor="middle" x="240" y="-363.3">input:</text>
<polyline fill="none" points="211,-355.5 269,-355.5 " stroke="#000000"/>
<text fill="#000000" font-family="Times,serif" font-size="14.00" text-anchor="middle" x="240" y="-340.3">output:</text>
<polyline fill="none" points="269,-332.5 269,-378.5 " stroke="#000000"/>
<text fill="#000000" font-family="Times,serif" font-size="14.00" text-anchor="middle" x="324" y="-363.3">(None, 7, 7, 32)</text>
<polyline fill="none" points="269,-355.5 379,-355.5 " stroke="#000000"/>
<text fill="#000000" font-family="Times,serif" font-size="14.00" text-anchor="middle" x="324" y="-340.3">(None, 7, 7, 32)</text>
</g>
<!-- 140065638578272&#45;&gt;140065669793048 -->
<g class="edge" id="edge8">
<title>140065638578272-&gt;140065669793048</title>
<path d="M228,-415.3799C228,-407.1745 228,-397.7679 228,-388.8786" fill="none" stroke="#000000"/>
<polygon fill="#000000" points="231.5001,-388.784 228,-378.784 224.5001,-388.784 231.5001,-388.784" stroke="#000000"/>
</g>
<!-- 140065669792600 -->
<g class="node" id="node10">
<title>140065669792600</title>
<polygon fill="none" points="93,-249.5 93,-295.5 363,-295.5 363,-249.5 93,-249.5" stroke="#000000"/>
<text fill="#000000" font-family="Times,serif" font-size="14.00" text-anchor="middle" x="144" y="-268.8">Flatten: Flatten</text>
<polyline fill="none" points="195,-249.5 195,-295.5 " stroke="#000000"/>
<text fill="#000000" font-family="Times,serif" font-size="14.00" text-anchor="middle" x="224" y="-280.3">input:</text>
<polyline fill="none" points="195,-272.5 253,-272.5 " stroke="#000000"/>
<text fill="#000000" font-family="Times,serif" font-size="14.00" text-anchor="middle" x="224" y="-257.3">output:</text>
<polyline fill="none" points="253,-249.5 253,-295.5 " stroke="#000000"/>
<text fill="#000000" font-family="Times,serif" font-size="14.00" text-anchor="middle" x="308" y="-280.3">(None, 7, 7, 32)</text>
<polyline fill="none" points="253,-272.5 363,-272.5 " stroke="#000000"/>
<text fill="#000000" font-family="Times,serif" font-size="14.00" text-anchor="middle" x="308" y="-257.3">(None, 1568)</text>
</g>
<!-- 140065669793048&#45;&gt;140065669792600 -->
<g class="edge" id="edge9">
<title>140065669793048-&gt;140065669792600</title>
<path d="M228,-332.3799C228,-324.1745 228,-314.7679 228,-305.8786" fill="none" stroke="#000000"/>
<polygon fill="#000000" points="231.5001,-305.784 228,-295.784 224.5001,-305.784 231.5001,-305.784" stroke="#000000"/>
</g>
<!-- 140065698463360 -->
<g class="node" id="node11">
<title>140065698463360</title>
<polygon fill="none" points="94.5,-166.5 94.5,-212.5 361.5,-212.5 361.5,-166.5 94.5,-166.5" stroke="#000000"/>
<text fill="#000000" font-family="Times,serif" font-size="14.00" text-anchor="middle" x="151.5" y="-185.8">Hidden-1: Dense</text>
<polyline fill="none" points="208.5,-166.5 208.5,-212.5 " stroke="#000000"/>
<text fill="#000000" font-family="Times,serif" font-size="14.00" text-anchor="middle" x="237.5" y="-197.3">input:</text>
<polyline fill="none" points="208.5,-189.5 266.5,-189.5 " stroke="#000000"/>
<text fill="#000000" font-family="Times,serif" font-size="14.00" text-anchor="middle" x="237.5" y="-174.3">output:</text>
<polyline fill="none" points="266.5,-166.5 266.5,-212.5 " stroke="#000000"/>
<text fill="#000000" font-family="Times,serif" font-size="14.00" text-anchor="middle" x="314" y="-197.3">(None, 1568)</text>
<polyline fill="none" points="266.5,-189.5 361.5,-189.5 " stroke="#000000"/>
<text fill="#000000" font-family="Times,serif" font-size="14.00" text-anchor="middle" x="314" y="-174.3">(None, 256)</text>
</g>
<!-- 140065669792600&#45;&gt;140065698463360 -->
<g class="edge" id="edge10">
<title>140065669792600-&gt;140065698463360</title>
<path d="M228,-249.3799C228,-241.1745 228,-231.7679 228,-222.8786" fill="none" stroke="#000000"/>
<polygon fill="#000000" points="231.5001,-222.784 228,-212.784 224.5001,-222.784 231.5001,-222.784" stroke="#000000"/>
</g>
<!-- 140065791274344 -->
<g class="node" id="node12">
<title>140065791274344</title>
<polygon fill="none" points="88.5,-83.5 88.5,-129.5 367.5,-129.5 367.5,-83.5 88.5,-83.5" stroke="#000000"/>
<text fill="#000000" font-family="Times,serif" font-size="14.00" text-anchor="middle" x="155.5" y="-102.8">Dropout-3: Dropout</text>
<polyline fill="none" points="222.5,-83.5 222.5,-129.5 " stroke="#000000"/>
<text fill="#000000" font-family="Times,serif" font-size="14.00" text-anchor="middle" x="251.5" y="-114.3">input:</text>
<polyline fill="none" points="222.5,-106.5 280.5,-106.5 " stroke="#000000"/>
<text fill="#000000" font-family="Times,serif" font-size="14.00" text-anchor="middle" x="251.5" y="-91.3">output:</text>
<polyline fill="none" points="280.5,-83.5 280.5,-129.5 " stroke="#000000"/>
<text fill="#000000" font-family="Times,serif" font-size="14.00" text-anchor="middle" x="324" y="-114.3">(None, 256)</text>
<polyline fill="none" points="280.5,-106.5 367.5,-106.5 " stroke="#000000"/>
<text fill="#000000" font-family="Times,serif" font-size="14.00" text-anchor="middle" x="324" y="-91.3">(None, 256)</text>
</g>
<!-- 140065698463360&#45;&gt;140065791274344 -->
<g class="edge" id="edge11">
<title>140065698463360-&gt;140065791274344</title>
<path d="M228,-166.3799C228,-158.1745 228,-148.7679 228,-139.8786" fill="none" stroke="#000000"/>
<polygon fill="#000000" points="231.5001,-139.784 228,-129.784 224.5001,-139.784 231.5001,-139.784" stroke="#000000"/>
</g>
<!-- 140065698242400 -->
<g class="node" id="node13">
<title>140065698242400</title>
<polygon fill="none" points="105.5,-.5 105.5,-46.5 350.5,-46.5 350.5,-.5 105.5,-.5" stroke="#000000"/>
<text fill="#000000" font-family="Times,serif" font-size="14.00" text-anchor="middle" x="155.5" y="-19.8">Output: Dense</text>
<polyline fill="none" points="205.5,-.5 205.5,-46.5 " stroke="#000000"/>
<text fill="#000000" font-family="Times,serif" font-size="14.00" text-anchor="middle" x="234.5" y="-31.3">input:</text>
<polyline fill="none" points="205.5,-23.5 263.5,-23.5 " stroke="#000000"/>
<text fill="#000000" font-family="Times,serif" font-size="14.00" text-anchor="middle" x="234.5" y="-8.3">output:</text>
<polyline fill="none" points="263.5,-.5 263.5,-46.5 " stroke="#000000"/>
<text fill="#000000" font-family="Times,serif" font-size="14.00" text-anchor="middle" x="307" y="-31.3">(None, 256)</text>
<polyline fill="none" points="263.5,-23.5 350.5,-23.5 " stroke="#000000"/>
<text fill="#000000" font-family="Times,serif" font-size="14.00" text-anchor="middle" x="307" y="-8.3">(None, 10)</text>
</g>
<!-- 140065791274344&#45;&gt;140065698242400 -->
<g class="edge" id="edge12">
<title>140065791274344-&gt;140065698242400</title>
<path d="M228,-83.3799C228,-75.1745 228,-65.7679 228,-56.8786" fill="none" stroke="#000000"/>
<polygon fill="#000000" points="231.5001,-56.784 228,-46.784 224.5001,-56.784 231.5001,-56.784" stroke="#000000"/>
</g>
</g>
</svg>